<svg id="Logo" xmlns="http://www.w3.org/2000/svg" viewBox="0 0 512 512"><defs><style>.cls-1{fill:#7936ba;}.cls-2{fill:#51217f;}.cls-3{fill:#e6e6e6;}.cls-4{fill:none;stroke:#7936ba;stroke-opacity:0.7;stroke-width:20px;}</style></defs><title>Logo</title><rect id="Background" class="cls-1" width="512" height="512" rx="55.5"/><rect id="Body" class="cls-2" x="14.24" y="14.96" width="482.76" height="482.76" rx="44.84"/><g id="D"><path id="Vector" class="cls-3" d="M286.92,136.42a71.26,71.26,0,0,0-19.85-2.81H200.91a71.36,71.36,0,0,0-71,71.44l.2,113.44a71.41,71.41,0,0,0,71.26,71.12h66.16a70.25,70.25,0,0,0,19.85-2.89,128,128,0,0,0-.47-250.3Zm-16.74,188.3L202.7,325a5.11,5.11,0,0,1-2-.28,5,5,0,0,1-1.74-1,5,5,0,0,1-1.21-1.62,5.21,5.21,0,0,1-.5-2l-.2-109.3a5.26,5.26,0,0,1,5.43-5h67.61c32.52,2,58.32,27.76,58.32,59.36S302.8,322.63,270.18,324.72Z"/></g><path id="Receiver" class="cls-4" d="M118,61c-32.87-.81-57.63,22.89-54.3,55"/></svg>